HIERARCHY
ROOT Hips
{
  OFFSET -35.2597 29.1586 114.425
  CHANNELS 6 Xposition Yposition Zposition Zrotation Xrotation Yrotation
  JOINT LeftUpLeg
  {
    OFFSET 8.64259 1.95398 -2.38835
    CHANNELS 3 Zrotation Xrotation Yrotation
    JOINT LeftLeg
    {
      OFFSET 43.7702 0 0
      CHANNELS 3 Zrotation Xrotation Yrotation
      JOINT LeftFoot
      {
        OFFSET 40.6238 0 0
        CHANNELS 3 Zrotation Xrotation Yrotation
        JOINT LeftToeBase
        {
          OFFSET 12.7242 0 0
          CHANNELS 3 Zrotation Xrotation Yrotation
          End Site
          {
            OFFSET 0 0 0
          }
        }
      }
    }
  }
  JOINT RightUpLeg
  {
    OFFSET -8.2249 1.95398 -2.59336
    CHANNELS 3 Zrotation Xrotation Yrotation
    JOINT RightLeg
    {
      OFFSET 43.5653 0 0
      CHANNELS 3 Zrotation Xrotation Yrotation
      JOINT RightFoot
      {
        OFFSET 40.6238 0 0
        CHANNELS 3 Zrotation Xrotation Yrotation
        JOINT RightToeBase
        {
          OFFSET 12.7242 0 0
          CHANNELS 3 Zrotation Xrotation Yrotation
          End Site
          {
            OFFSET 0 0 0
          }
        }
      }
    }
  }
  JOINT Spine
  {
    OFFSET 0.165834 0.87714 6.61349
    CHANNELS 3 Zrotation Xrotation Yrotation
    JOINT Spine1
    {
      OFFSET 7.38963 1.71661e-005 0
      CHANNELS 3 Zrotation Xrotation Yrotation
      JOINT Spine2
      {
        OFFSET 11.9445 1.14441e-005 0
        CHANNELS 3 Zrotation Xrotation Yrotation
        JOINT Spine3
        {
          OFFSET 14.7254 4.19617e-005 0
          CHANNELS 3 Zrotation Xrotation Yrotation
          JOINT Spine4
          {
            OFFSET 10.9679 0 0
            CHANNELS 3 Zrotation Xrotation Yrotation
            JOINT RightShoulder
            {
              OFFSET 2.46616 -1.6653 3.69651
              CHANNELS 3 Zrotation Xrotation Yrotation
              JOINT RightArm
              {
                OFFSET 13.0012 0 0
                CHANNELS 3 Zrotation Xrotation Yrotation
                JOINT RightForeArm
                {
                  OFFSET 28.7848 1.62311e-005 0
                  CHANNELS 3 Zrotation Xrotation Yrotation
                  JOINT RightHand
                  {
                    OFFSET 26.5688 1.62095e-005 0
                    CHANNELS 3 Zrotation Xrotation Yrotation
                    End Site
                    {
                      OFFSET 0 0 0
                    }
                  }
                }
              }
            }
            JOINT LeftShoulder
            {
              OFFSET 2.38034 -1.29275 -3.7523
              CHANNELS 3 Zrotation Xrotation Yrotation
              JOINT LeftArm
              {
                OFFSET 16.3182 6.07031e-005 0
                CHANNELS 3 Zrotation Xrotation Yrotation
                JOINT LeftForeArm
                {
                  OFFSET 27.0901 0 0
                  CHANNELS 3 Zrotation Xrotation Yrotation
                  JOINT LeftHand
                  {
                    OFFSET 24.5451 1.51738e-005 0
                    CHANNELS 3 Zrotation Xrotation Yrotation
                    End Site
                    {
                      OFFSET 0 0 0
                    }
                  }
                }
              }
            }
            JOINT Neck
            {
              OFFSET 5.0226 -0.0266342 0
              CHANNELS 3 Zrotation Xrotation Yrotation
              JOINT Head
              {
                OFFSET 6.69364 2.86102e-005 0
                CHANNELS 3 Zrotation Xrotation Yrotation
                End Site
                {
                  OFFSET 0 0 0
                }
              }
            }
          }
        }
      }
    }
  }
}
MOTION
Frames:	15
Frame Time:	0.0416667
103.672 84.7193 208.095 -89.207 48.5402 -91.7379 -167.78 -9.23437 88.6731 -39.454 0.596568 -3.35902 101.055 26.8913 -7.68646 45.1306 4.98998 8.73749 174.255 49.8294 96.8464 -53.4072 -23.9456 1.60261 66.5131 -3.99616 -3.51963 15.8749 1.33179 10.104 -0.917651 9.58368 -90.0146 7.70477 -1.83843 0.0592572 -3.96489 -1.83403 0.140131 -26.5099 -1.7712 -0.496189 -6.49722 -1.7712 -0.496188 92.2047 -32.2951 -101.648 37.5812 5.52319 41.4743 -54.0336 -19.5566 -77.2327 -45.7691 11.3337 -32.09 -88.5231 -51.0869 81.1405 -20.9486 -12.3168 8.83949 43.9385 -3.32478 -94.9918 0.641308 -1.59224 -56.8771 24.7422 5.53417 -3.42614 2.636 6.57359 3.08403 
108.066 85.2104 211.359 -92.8806 50.2857 -89.3421 -166.516 -6.05139 88.7656 -44.2238 -2.84691 -4.06107 104.145 26.8161 -10.4353 43.1375 3.96093 8.57047 174.732 47.932 97.0249 -50.3023 -18.9004 1.66343 68.9641 -5.26895 -1.10292 19.472 1.2783 7.10654 -0.547804 9.97744 -89.7898 6.92179 -1.00415 0.459127 -4.74887 -0.982965 0.502878 -27.2871 -1.0957 0.136085 -7.27444 -1.0957 0.136085 91.8209 -31.6829 -102.592 39.4627 -2.35879 42.1514 -31.5681 -7.08115 -82.794 -53.1257 11.7462 -28.7016 -88.1915 -53.668 82.0915 -22.0796 -10.9721 27.5981 47.2321 -1.25416 -92.1518 0.502918 -1.37832 -53.3033 23.1053 4.51469 -4.79604 4.52514 6.05258 2.92035 
111.647 86.3638 212.914 -95.7247 50.1003 -87.5569 -165.963 -3.65944 89.5596 -46.8024 -2.38063 -3.97233 100.52 24.9103 -9.33404 43.0077 4.13303 7.83891 175.278 47.0438 96.4361 -53.0473 -13.4788 0.961606 67.5921 -4.27648 -2.96068 16.042 1.56939 9.44312 -0.158332 10.1199 -89.814 6.63438 -0.23696 0.375368 -5.0366 -0.220196 0.38543 -27.5717 -0.338826 0.286794 -7.559 -0.338822 0.286798 91.8654 -29.9833 -103.049 33.936 3.43497 50.2936 -36.9761 -1.16333 -91.2505 -49.807 14.8429 -36.916 -87.6811 -54.3834 82.942 -21.0169 -14.4135 48.7147 47.151 -4.05999 -94.9477 -2.14812 -0.197001 -55.1588 20.137 2.92745 -4.44273 6.42069 4.36205 2.83451 
114.446 87.5841 213.553 -95.6716 46.2791 -87.6807 -167.27 -1.49624 90.4944 -46.3472 0.652316 -2.43384 99.6574 25.4296 -8.24658 39.8697 2.48087 7.6838 175.195 47.3703 94.0328 -57.0824 -15.3538 0.250883 66.1033 -3.11405 -2.92925 17.3831 1.90088 7.46418 -0.0713798 10.1058 -89.8808 6.66228 -0.0917501 0.238124 -5.00868 -0.0811558 0.241925 -27.5437 -0.159076 0.199545 -7.53104 -0.15906 0.199537 91.5977 -30.1396 -103.532 30.0758 8.55026 58.1266 -43.9014 3.50301 -96.3352 -52.0797 14.8446 -35.4177 -86.4324 -50.7868 84.2005 -19.4506 -16.8551 63.7326 49.8971 -7.94332 -98.0418 0.0545453 -1.30183 -57.7745 18.5279 0.778336 -6.22855 7.14047 2.83675 3.34655 
116.397 88.6072 213.328 -96.5672 45.0217 -87.2398 -168.509 -2.68051 90.8562 -43.1409 -0.938676 -1.56209 99.6485 24.7754 -9.61181 37.148 0.619263 8.57292 176.605 46.0151 92.1027 -59.0154 -17.2056 -0.97545 65.0054 -2.49483 -3.41623 17.6437 0.865855 9.81351 0.191094 10.0264 -89.9819 6.8209 0.389383 0.0201252 -4.85 0.389894 0.00295647 -27.3855 0.365328 0.136223 -7.37289 0.365329 0.136215 92.4751 -28.8269 -102.191 24.6393 16.9288 64.4904 -60.3966 6.61655 -97.0842 -46.4942 14.5464 -38.7027 -86.5218 -49.9624 83.9411 -16.2224 -21.449 70.9165 54.9073 -9.853 -98.4663 -0.37456 -1.13646 -59.2449 16.8101 -0.598858 -5.12179 7.14506 1.04285 2.35427 
117.816 89.5407 212.403 -96.6124 45.6506 -86.9161 -168.893 -3.15878 91.5746 -40.7573 -0.292189 -1.12709 96.8997 23.8001 -8.002 37.0181 0.389146 8.94795 177.66 44.7882 91.6817 -59.0317 -16.8953 -1.64405 65.3049 -2.74164 -3.26088 18.5786 0.577063 9.73186 0.319743 9.83483 -89.9603 7.20419 0.65567 0.0481961 -4.4666 0.657181 0.019282 -27.0029 0.61087 0.243034 -6.9903 0.610884 0.243029 92.1545 -28.8796 -102.828 24.4395 17.0874 66.8399 -63.6766 8.48894 -97.5731 -45.1662 13.9066 -38.3112 -86.1481 -50.6042 84.5988 -13.4808 -24.8997 75.1209 59.1595 -10.9793 -98.2295 2.85321 -2.77982 -59.0691 15.4838 -0.704605 -4.58053 7.70705 0.693828 1.68903 
118.766 90.3485 210.812 -96.9391 46.3396 -86.5706 -168.705 -5.05151 92.808 -37.0764 0.438797 -0.966081 94.7166 22.8598 -7.17664 37.0792 0.387881 9.03537 177.804 43.1181 91.1702 -58.5628 -15.7634 -1.84864 66.4203 -3.48224 -2.85383 20.0321 0.174828 9.48951 0.322629 9.75574 -89.9411 7.36217 0.6697 0.0841869 -4.30861 0.672769 0.054616 -26.8449 0.613436 0.281565 -6.8323 0.613449 0.281581 92.0764 -28.69 -103.052 27.636 12.0024 66.2265 -57.4895 7.63308 -98.2978 -45.3947 14.0255 -38.4044 -85.9988 -51.7725 84.9903 -14.0181 -24.2985 71.7208 57.4251 -9.35246 -97.5848 3.07191 -2.79369 -57.1553 16.3048 -0.589066 -3.856 6.71492 0.616194 1.6145 
119.359 90.7274 208.452 -96.4982 47.0141 -87.3152 -168.103 -7.2142 94.0716 -33.1493 1.11043 -1.13034 93.3029 21.683 -7.62319 37.2494 0.129826 9.89849 178.591 41.8274 89.6897 -59.2057 -13.5035 -2.52371 68.7402 -4.97354 -1.77655 23.569 -0.759576 8.73128 0.219147 9.60592 -89.8625 7.66145 0.497314 0.245611 -4.00941 0.507647 0.22348 -26.5449 0.400501 0.383721 -6.5323 0.400492 0.383702 91.9027 -29.4497 -103.15 32.5086 5.08054 62.3374 -49.5856 3.32698 -96.3482 -49.8627 15.1015 -37.3599 -86.1766 -53.8998 85.0308 -16.4293 -21.694 64.454 56.4291 -7.64592 -96.6385 7.48233 -4.54164 -52.9774 16.8868 -0.206063 -3.92499 6.10373 1.02719 1.82318 
119.646 90.9262 205.191 -95.2099 44.3776 -88.7366 -167.886 -9.37691 96.1977 -28.2335 3.98068 -0.387114 91.6729 20.6265 -8.07204 38.1103 0.414348 10.4411 179.499 40.4256 86.5036 -62.7161 -11.8806 -3.74112 72.0714 -7.43092 -2.26237 25.8661 -1.32034 8.02306 -0.0327024 9.48538 -89.8366 7.90332 0.00612779 0.323438 -3.76767 0.0203496 0.322849 -26.3025 -0.0913613 0.310325 -6.28984 -0.0913724 0.310319 91.4977 -31.0913 -103.415 37.5292 -0.138834 61.4343 -42.2536 1.99502 -91.3306 -53.1656 13.1039 -31.3222 -87.2615 -55.4126 83.7021 -19.6725 -16.7921 49.0331 54.8555 -4.87047 -94.878 8.65682 -4.84458 -50.9853 16.9095 -0.48803 -4.90691 6.86415 1.06944 2.14584 
119.11 90.7922 200.916 -93.1732 38.5539 -91.1582 -167.653 -12.2362 99.0196 -20.418 9.13635 0.785419 88.7776 19.6297 -8.21497 39.0645 0.68434 11.1801 179.954 37.5504 81.5194 -67.4056 -11.0978 -5.21852 75.9079 -10.1057 -2.55157 28.0061 -1.68834 6.76359 -0.497198 9.23361 -89.8971 8.40704 -0.946777 0.259912 -3.2636 -0.934419 0.301323 -25.8014 -0.981109 -0.0366738 -5.78876 -0.981103 -0.0366742 92.2229 -31.6139 -101.825 41.1178 0.408328 60.5898 -39.695 -6.28778 -85.869 -49.5905 13.5028 -34.2864 -88.1116 -56.9601 82.75 -22.7957 -9.44141 30.549 53.8783 -3.1111 -93.6436 11.6962 -6.32963 -51.9176 18.0887 -1.34308 -5.50569 5.62651 0.463047 2.3267 
118.625 89.8983 195.645 -90.5883 33.3712 -92.4663 -165.793 -13.0019 103.795 -13.8542 14.938 1.51058 85.7544 18.1407 -8.21313 40.389 1.27559 11.693 -179.862 33.8755 79.5952 -71.5243 -11.7878 -6.17965 77.1303 -10.8058 -1.17832 25.0152 -0.189763 5.43758 -0.887202 8.83114 -90.1473 9.21096 -1.83535 -0.159657 -2.45868 -1.84062 -0.0787128 -25.003 -1.70251 -0.704036 -4.9904 -1.7025 -0.704045 91.5708 -30.9472 -103.317 41.7361 4.42769 64.1604 -42.8731 -11.5404 -79.1642 -42.5214 14.1999 -41.1943 -88.1548 -56.1813 82.5636 -23.1328 -0.854506 13.7696 47.7844 -3.87436 -94.7145 8.0231 -4.96654 -54.5362 17.6389 -1.84465 -4.06635 5.97864 -0.489838 1.67625 
117.758 88.4596 189.378 -88.8316 30.5658 -92.6541 -164.794 -13.7472 107.921 -10.1808 18.6375 2.82326 79.3205 16.0651 -4.42848 45.3108 3.66731 13.3689 177.653 27.5276 81.4145 -68.0576 -11.5377 -5.6102 75.9382 -10.3855 -2.91795 34.0744 -2.87982 2.83169 -1.14877 8.59767 -90.4014 9.67364 -2.47147 -0.602791 -1.99502 -2.49561 -0.493377 -24.5446 -2.17603 -1.318 -4.53198 -2.17601 -1.318 91.3229 -29.7381 -104.223 41.818 7.50684 62.2537 -45.3064 -19.6484 -72.1945 -40.7085 14.7034 -44.1224 -87.6357 -52.5203 82.7008 -21.738 7.04011 2.34908 38.3878 -4.28882 -96.2545 12.1136 -6.59068 -52.5305 20.6791 -1.62639 -3.28631 3.84854 -0.424101 2.24309 
117.008 87.1867 182.467 -85.0491 34.2094 -92.365 -169.3 -7.47648 107.554 -24.6157 7.06326 6.10798 73.1605 11.7724 -0.722499 51.3115 6.07728 16.9545 175.349 22.059 86.7334 -60.209 -7.75214 -3.4938 87.9076 -18.6197 -1.26892 41.0535 -5.38988 2.00622 -0.921395 8.36852 -90.8588 10.1199 -2.22737 -1.51558 -1.54994 -2.29192 -1.41606 -24.0875 -1.66902 -2.11487 -4.07484 -1.66901 -2.11488 90.4806 -29.3053 -106.067 36.3855 11.5727 52.1766 -55.0217 -32.5055 -69.5124 -39.5176 14.2097 -44.0379 -86.7811 -48.483 83.3096 -20.059 7.95058 2.50409 36.7048 -7.17084 -100.45 17.2236 -8.8938 -52.3836 26.124 0.477559 -0.647595 0.625347 0.717272 2.28604 
116.574 86.5854 176.128 -81.4455 40.2101 -91.4459 -177.423 4.47616 104.449 -51.6724 -3.61535 9.8643 69.3808 7.29781 5.01794 29.6458 -0.577754 2.79012 175.332 19.8298 92.0301 -56.8332 -12.5278 -1.8904 93.4174 -23.5974 -1.64727 36.1903 -3.87742 3.66172 -0.424351 8.42017 -91.429 10.0097 -1.49575 -2.71513 -1.66302 -1.6138 -2.64674 -24.1773 -0.611013 -3.03884 -4.16463 -0.611026 -3.03885 87.1913 -32.1417 -111.31 29.9651 14.4299 40.4567 -53.3889 -36.6499 -65.9642 -39.4982 13.0474 -41.0504 -87.3687 -50.7814 82.8094 -20.7409 3.21518 12.747 40.1575 -10.1091 -102.926 14.0427 -7.68343 -53.9118 31.1717 3.20609 2.4732 -0.390112 2.04354 1.87693 
115.737 85.7146 170.541 -81.718 45.4863 -89.3166 177.466 17.4347 101.046 -79.5483 2.74181 8.48151 73.933 10.1679 7.27692 26.8641 2.12907 -6.22905 176.157 14.8314 95.1643 -54.4918 -14.7767 -1.49968 96.9973 -26.0951 -0.00761107 37.262 -4.62712 5.4584 0.0569349 9.03787 -91.7589 8.77512 -0.667716 -3.43662 -2.90012 -0.818226 -3.40396 -25.399 0.395335 -3.47844 -5.3863 0.395322 -3.47845 85.9689 -32.6955 -113.37 26.7209 15.5179 25.3468 -54.6579 -34.5152 -68.1411 -42.1281 13.155 -39.0028 -86.6688 -56.0454 84.6307 -22.4266 -5.99945 22.2122 49.8453 -6.4958 -96.8194 10.3227 -5.65409 -51.5638 36.8063 5.49988 3.74621 -0.0464819 3.48432 1.43175 
